<?xml version="1.0" encoding="utf-8"?>
<!-- Generator: Adobe Illustrator 22.1.0, SVG Export Plug-In . SVG Version: 6.00 Build 0)  -->
<svg version="1.1" id="Laag_1" xmlns="http://www.w3.org/2000/svg" xmlns:xlink="http://www.w3.org/1999/xlink" x="0px" y="0px"
	 viewBox="0 0 1077 2634" style="enable-background:new 0 0 1077 2634;" xml:space="preserve">
<style type="text/css">
	.st0{fill:#FFFFFF;}
	.st1{fill:#E54F50;}
</style>
<g id="Tekengebied_4">
	<path class="st0" d="M631.3,2480.1c3.3-10.6,7.9-20.7,13.6-30.1c18.8-31.6,38-63,56.7-94.6c23.5-39.7,46.9-79.3,70.3-119
		c21.6-36.6,38.2-75.6,53.2-115.4c6.2-16.3,14-32.1,16.9-49.5c8-48.3,8.4-96.4-4.2-144.2c-7.1-26.9-17.3-52.7-27.1-78.7
		c-18-47.9-38.1-95-58.8-141.8c-12.3-27.9-20.1-57-27.6-86.3c-4.9-19.3-10.7-38.5-12.5-58.5c-1.2-13.1-2.7-26.1-2.9-39.3
		c-0.7-38.8,3.8-77.1,8.8-115.4c3.5-26.7,5.2-53.7,6.4-80.7c1.2-26.8,3-53.6,2.5-80.4c-0.3-18.9-5.1-36.8-10-54.8
		c-1.3-4.2-3.5-8-6.4-11.2c-8.6-9.8-17.9-18.7-29.8-24.7c-19.1-9.8-37.4-5-54.8,3.7c-11.4,5.7-21,14.7-29.8,24.1
		c-11.3,12.2-16.4,27.6-21.5,42.9c-5.9,17.7-7.2,36.2-9.7,54.4c-6.5,46.8-14,93.3-25.6,139.1c-3.8,15-2.7,30-1.5,45.2
		c2.6,34.1,3.8,68.2,2.4,102.4c-1,25.1-1.4,50.3-3.4,75.4c-2.9,35.8-4.8,71.8-14,106.8c-1.1,4.5-2.6,8.9-4.6,13.1
		c-0.5,1-0.9,2.4-2.5,1.6c-1.2-0.6-0.5-1.6-0.5-2.6c-0.7-35,5.6-69.3,8.5-104c3.4-39.9,5.7-79.8,5.5-119.8
		c-0.1-27.8,0.7-55.7-2.3-83.4c-2-18.2,1.8-35.8,5.9-53.3c0.3-1.3,0.9-2.5,0.4-4.2c-6.5,3.1-13.3,5.7-20.2,7.8
		c-4.7,1.6-9.8,1.8-14.7,0.5c-2.7-0.8-3.5,0-4.1,2.8c-2.6,13-6,25.9-8.3,39c-1.7,9.6-1.4,19.5,1,29c5.2,21.2,8.5,42.8,9.7,64.5
		c0,0.6-0.1,1.3-0.1,2.4c-3.1-2.1-3.1-5.3-3.9-7.8c-6.4-21.2-9.6-43.1-15.1-64.5c-13.2-51.7-30.2-101.9-52.8-150.3
		c-13.5-29.1-27.5-58-33.9-89.9c-4.2-21.1-6.4-42.5-10.5-63.5c-4.9-25.1-9.7-50.2-15.5-75.7c-3,1.8-3.5,5.2-5.3,7.5
		c-2.3,2.8-4.5,5.8-6.8,8.6c-0.6,0.8-1.5,1.6-2.5,0.8s0-1.8,0.2-2.5c2.8-8.2,5.6-16.3,8.6-24.3c4.6-12.3,5.5-25.2,7.2-38.1
		c4.6-36.9,2.3-73.8,2-110.8c-0.3-18.8-3.4-37.5-9.2-55.4c-1-3.7-2.6-7.2-4.8-10.3c-0.7-1-1.6-2-0.7-3s2.3-0.7,3.3-0.3
		c3.3,1.2,6,3.7,7.7,6.8c1.5,2.7,2.8,5.5,4.4,8.6c1.9-1.6,1.1-3.5,1.1-5.1c0-14.2,0-28.3,0-42.5c0-15.4,2.7-30.5,3.5-45.8
		c1.4-25.7,1.6-51.2-1.8-76.8c-1.9-14.3-2.1-29-6.5-42.9c-5.4-17-12.5-33.3-25.4-46.3c-4.6-4.6-10.2-8-16.4-10.1
		c-3.1-1.1-6.2-2.3-9.2-3.8c-10-4.9-19.4-2.9-28.5,2.1s-11.6,13.8-7.7,24c0.2,0.4,0.2,0.9,0.1,1.3c-3.5,5-1.8,10.7-1.8,16
		c0,16-0.7,32-1.1,48c0,1.4-1.2,3.5,0.4,4.1c2,0.8,4.3,0.7,6.2-0.5c4.8-3,7.2-7.8,9.1-12.7c2.5-6.4,3.6-13.2,3.2-20
		c-1-14.8-1.1-29.6-3.5-44.3c-0.9-4.4-0.4-8.9,1.4-13c2.4,5.6,3,11,4,16.2c3,17,3.8,34.4,2.3,51.6c-0.8,7.4-3.2,14.6-7,21.1
		c-3.6,6.3-9.5,8.7-16.8,6.8c-1.9,13.7-3.5,27.3-5.6,40.8c-3.2,19.9-7.6,39.6-10.2,59.5c-4.3,32.7-9.1,65.3-13.6,97.9
		c-4.9,36.1-11.8,71.9-20.7,107.3c-9.6,37.5-9.5,75.8-9.1,114.2c0.5,50.7,11.1,99.8,20.6,149.1c7.6,39.4,15.7,78.7,20.3,118.5
		c2.7,23.3,5,46.7,5.1,70.2c0,10.7-1.2,21.2-2,31.8c-0.1,1,0.1,2.3-1.3,2.2s-1.6-1.3-1.8-2.6c-1.3-13.2-3-26.4-3.9-39.7
		c-1.5-22.4-4.5-44.7-7.4-67c-2.8-21.6-7.2-43-10.9-64.5c-0.2-1.3-0.6-2.5-1.2-5c-2.4,10.8-4.6,20.3-6.7,29.9
		c-6.5,29.5-16.9,57.8-26.1,86.4c-9.5,29.2-16.6,58.9-17.5,89.8c-0.5,18.9,3.6,36.9,9.6,54.8c16.8,50.1,35.3,99.6,54.1,149
		c24.4,64.2,48.6,128.4,72.2,192.9c20,54.7,36.5,110.3,45.6,167.8c6.6,41.8,11.3,83.9,10.3,126.3c-0.1,7.6-0.7,15.2-1.7,22.7
		c-9.1-36.1-11.2-73.4-19.4-109.8c-1.1,6.9-2.5,13.7-3.3,20.7c-5,40.2-15.2,79.2-28.2,117.5c-13.4,39.7-24,80.2-37.3,120
		c-3.2,9.5-6.4,19-10.9,28.1c-0.6,1.2-0.8,2.6-3.2,2.7c1.7-5.2,3.6-10.1,5-15.1c9.5-34.3,18-68.9,26.9-103.3
		c6-23.2,14.7-45.6,21.9-68.4c9.4-29.8,15.8-60.4,19.1-91.4c1.2-11.9,3-23.7,4.6-35.6c1.7-12.8-2.4-24.8-5.1-36.9
		c-13.4-60-31.9-118.4-52.6-176.3c-21.7-60.5-44.2-120.8-66-181.3c-15.8-43.9-31.3-88-45.4-132.5c-5.9-18.5-7.3-37.4-6.1-56.8
		c2.7-41.8,15.4-81.1,28-120.6c7.8-24.5,15.7-49.1,20.1-74.6c2.1-12.4,4.5-24.8,5.9-37.4c0.9-8.1-2.2-16.1-3.7-24.1
		c-5.7-29.6-11.3-59.2-14.3-89.2c-1.9-19.4-2.7-38.9-2.6-58.4c0.1-27.5-0.1-55,4.1-82.3c2.6-16.7,7.2-32.8,11.1-49.1
		c6.7-28.4,10.6-57.2,14.9-86c3.5-23.5,7.9-47,10.3-70.6c2.9-28.1,9.9-55.3,15.2-82.9c5.1-26.5,8.6-53.1,7.9-80.2
		c-0.4-15.8,0.9-31.6,1.8-47.4c0.5-9,12.7-19.7,23.6-21.7c8.1-1.5,15.4-0.3,23.2,2.8c15.3,6.2,29,14.1,37.9,28.6
		c10.3,16.9,18.4,34.4,21.5,54.3c6.7,41.1,7.8,83,3.2,124.4c-3.8,33.4-1.9,66.9-2.1,100.4c0.1,0.6,0.3,1.1,0.5,1.7
		c9.3-7,18.2-14.2,27.6-20.7c23.6-16.5,48-31.8,72.2-47.3c12.5-8,24.2-17,36.6-25.1c23.3-15.5,50.8-23.6,78.8-23.2
		c36.2,0.4,70.2-8,103.6-20.3c18.7-7,38-12.3,57.6-15.9c14.4-2.6,19.5,0,27.6,12.1c7.1,10.6,8.3,22.6,10.2,34.6
		c2,12.2,1.6,24.7-1.2,36.7c-3.6,15.8-12.3,28.7-24.6,39c-17.4,14.8-37.5,26.1-59.2,33.2c-29.3,9.8-59.4,16-89.3,23.3
		c-3.2,0.8-6.5,1.3-9.9,1.5c-8.7,0.2-14.7,4.5-20.2,11c-23.4,27.4-50.6,51.3-80.8,70.9c-13.8,9-27.5,18.1-41.4,27.1
		c-7.9,5.1-12.4,12.7-16.5,21.2c2.4,0.5,3.7-1,5.1-1.9c28.7-17.8,58.2-34.3,87.5-51.1c15.9-9.1,32.5-16.8,49.4-23.8
		c32-13.3,62.9-28.8,93.8-44.1c24.6-12.2,50.3-20.9,76.9-27.2c19.4-4.7,37.3-13,55.4-20.7c19.6-8.3,39.8-14.9,59.8-22
		c22.8-8.1,39.8,2.8,47.8,23c12.3,31,9.4,59.7-13.3,85.6c-19.7,22.5-44.4,36.5-72.2,46.2c-33.4,11.6-66.9,23.1-98.7,38.8
		c-11,5.3-21.2,12-30.3,20c-18.2,16.2-36.8,31.8-56.7,45.8c-0.8,0.6-1.8,0.9-2,2.5c3,0.4,6,0.6,9,1.1c18.2,3.4,32.8,13.2,47.1,24.6
		c15.9,12.7,19.8,30.3,24.3,48.3c6.4,25.4,4.7,50.9,3.5,76.5c-0.8,17.5-1.7,34.9-2.5,51.9c28.5-3.5,57.1-4.8,85.4-8.8
		c8.6-1.2,17.2-1.8,25.8-3.1c14.7-2.2,29.3,0.3,43.8,1.3s28.5-0.7,42.6-3.5c20-4,39.6-10.1,59.8-13.2c7.6-1.2,15.3-1.4,22.9-0.4
		c13.2,1.7,20.1,9.7,21.6,24c2.8,26.8-6.8,49.5-24.2,68.8c-17.6,19.6-40,32.2-65.2,39.9c-35.8,10.9-72.2,18.2-109.8,19.4
		c-16.2,0.5-31.2,6.1-46.3,11.3c-13.7,4.7-27.3,9.7-41.7,11.8c-7.4,1.1-14.8,2.1-22.3,2.6c-3.2,0.2-4.2,1-4.3,4.3
		c-1.3,38,2.8,76,12,112.8c8.8,35,21,68.5,35.5,101.5c21.2,48.4,40.6,97.6,59.3,147c9.6,25.2,19.8,50,25.5,76.6
		c7,32.6,7.5,65.4,6,98.4c-1.5,33.6-10.6,65.2-23.5,95.9c-12.5,29.7-22.5,60.4-37.7,89c-7.3,13.8-14.9,27.5-22.9,40.9
		c-28.2,47-53.7,95.5-84.7,140.7c-18.6,27.2-38.3,53.6-57.5,80.4c-0.5,0.7-1.6,1.2-1.2,2.4L631.3,2480.1z M443.3,1055.2
		c-5.5,1-10.6,4-16.3,4.2c-2.7,0.1-6.5,1.2-7.5-2.1c-1.1-3.8,3.2-4.1,5.5-5.1c18.6-8,37.8-15.1,54.2-27.2
		c18.9-13.9,38.4-27,56.4-42.1c12.1-10.1,24.6-20,34.8-32.2c10.6-12.4,19.5-26.2,26.6-40.9c3.8-7.9,8.2-15.6,12.6-23.2
		c1.4-2.3,2.5-6.8,6.2-5s0.7,5.4,0.1,8c-0.8,3-2,6-3.5,8.8c-4.3,9.1-7,18.9-12.1,28.4c6.1-0.8,11.5-1.3,16.9-2.1
		c12.9-1.9,25.3-5.9,37.9-8.6c32.2-6.9,63.5-16.3,90.7-35.9c10.4-7.5,21-14.9,28.1-26c10.2-15.8,12.3-33.4,10.6-51.8
		c-1.2-11.9-3.4-23.3-10.9-33.2c-3.2-4.2-6.6-6.6-12.2-5.8c-15.3,2.2-30.4,6-44.9,11.2c-39.4,14.5-79.2,25.2-122,24.5
		c-24.6-0.4-48.5,7.1-70,20.5c-13.5,8.5-26.4,18.1-39.8,26.6c-33.9,21.6-68.5,42.3-101.1,65.8c-4.2,3-5.2,6-5,10.6
		c1.2,24.3,0.6,48.7-0.5,72.9c-1,21.8-3,43.5-4.9,65.2c-1.7,19.9,2.3,39.1,6.5,58.3c5.7,26.5,11.8,53,15.2,79.9
		c0.9,8.5,2.5,17,4.7,25.3c3.4-9.5,6.6-18.4,9.8-27.3c11.5-32.7,18.5-66,12.4-100.9c-0.7-3.3,0.2-6.8,2.5-9.3
		c8.4-9.2,14.4-19.9,19.4-31.2c0.4-0.4,0.6-0.8,0.1-1.2L443.3,1055.2z M727.7,1065.6c34-17.3,69.6-30.6,105.9-42.2
		c21.5-6.9,41.5-16.7,58.8-31c32.9-27.4,39.3-59.2,21.7-97.7c-4.9-10.7-14.9-17.2-28.8-12.5c-19.3,6.6-38.4,13.8-57.4,21.5
		c-20.6,8.3-40.7,18-62.3,23.6c-25.6,6.7-50.4,15.5-74.2,27.3c-26.5,13.2-52.3,27.8-79.6,39.2c-45,18.7-87.6,41.8-128.8,67.7
		c-16,10.1-32.6,19.3-48.9,28.9c-2.4,1.4-2.7,3.4-2.2,6c1.3,5.9,2.2,11.8,2.7,17.8c2.1,40.3-8.8,77.7-25.6,113.7
		c-0.9,2-1.9,4.6-4,4.9c-4,0.7-2.7,2.8-2.2,5.1c5.2,24.1,16.1,46.1,26.3,68.3c16.7,36.3,31.8,73.2,42.9,111.6
		c2.5,8.7,4.9,17.5,7.6,27.1c2.4-5.5,2.3-10.5,3.4-15.3c3.3-15.1,5.9-30.3,7.7-45.7c0.7-5.7,0.2-11.5,1.3-17
		c4.4-21.1,11.2-41.5,16.8-62.3c6.5-24.4,6.8-49.8,10.3-74.6c2.6-18.3,0.9-36.8-3.3-55c-0.6-2.5-3.9-6.8,0.2-8.3
		c3.4-1.2,4.7,3.5,6.1,6.1c10.9,20.5,12.4,42.4,9.3,65c-0.2,1.1-2.3,2.5-0.2,3.3s2.3-1.5,2.8-2.7c16.5-37.6,44-65.5,77.6-87.8
		c21.6-14.4,43.2-28.9,63.4-45.2c10.2-8.2,21.7-15.1,29.6-25.9c8.8-12.1,16.7-24.8,24.5-37.6c3.3-5.6,7.3-10.8,11.8-15.5
		c0.9,1.7,0.4,2.8-0.2,4c-2.5,5.4-4.8,10.9-7.3,16.3c-1.2,2.6-3.5,5.2,1.8,7.1c-5.4,0.7-5.3,0.7-6.7,5.4c-0.5,1.9-1.3,3.7-2,5.6
		c-0.1,0.4-0.5,1.1-0.3,1.2C726.7,1066.5,727.2,1066.1,727.7,1065.6z M819.6,1457.2c12.2-1.6,24.3-1.8,36.4-2.7
		c23.5-1.8,46.3-7.7,68.9-13.8c18.3-4.9,36.5-10.4,52.6-21c20-13.2,36.7-29.2,45.3-52.3c3-8.1,6.4-16,5.7-25
		c-1.6-19.4-5.6-23.1-25.2-22.9c-15.6,0.1-30.6,4.3-45.5,8.3c-27.8,7.4-55.8,12.5-84.8,8.6c-10.8-1.5-21.6-0.9-32.4,0.4
		c-25.3,3-50.4,7-75.8,8.8c-8.8,0.7-17.6,0.2-26.4,1.6c-3.4,0.5-4.9,1.5-5.1,5.5c-0.9,19-2.2,37.9-3.7,56.8
		c-1.6,19.4-3.7,38.8-5.3,58.2c-0.4,4.6-3.3,10.8,0.3,13.5s9.6,0.4,14.6-0.2c31.2-4.1,59.9-13.8,82.2-37.4c0.1-0.1,0.2-0.2,0.4-0.3
		c5.9-5.4,12.8-9.5,19.3-14.1c0.7-0.5,1.7-1.5,2.6-0.5s-0.2,1.8-0.7,2.5c-1.3,1.7-2.6,3.4-4,5.1
		C833,1443.6,825.8,1449.7,819.6,1457.2z M571.4,1200c-2.5,1-3.4,2.7-4.6,4c-9.1,10.6-15.2,22.9-21.3,35.3
		c-13.5,27.6-22.7,56.6-30.3,86.4c-5.3,21.1-11,42.1-13.7,63.8c-0.6,5.2,0.1,5.8,5.3,5c6.2-1.1,12.4-2.4,18.6-3.5
		c3.2-0.6,7.4,2,9.4-0.8c1.9-2.6,1.6-6.7,2.3-10.1c0.2-1.1,0.4-2.3,0.6-3.4c4.2-21,9-41.8,11.6-63.1c2-16.3,3.6-32.8,6.5-48.9
		c3.8-21,7-42.3,15.3-62.3C571.3,1201.6,571.4,1200.8,571.4,1200z M819.1,1457.5c-0.1-0.1-0.2-0.3-0.4-0.3s-0.2,0.2-0.4,0.3l0.5,0.3
		L819.1,1457.5z"/>
	<path class="st1" d="M223,219.6c6.6-50.6,31-92.8,58.9-133.4c13.7-19.8,28.9-38.4,49-52.2c15.6-10.7,32.5-18.5,51.8-18.8
		c22.3-0.3,38.1,10.3,47.5,30.3c7.4,15.9,10.5,33,11.7,50.3c1.8,28.3,2.8,56.6-2.6,84.7c-3.4,17.6-9.4,34.4-14.6,51.4
		c-13.1,43.5-29.7,86-49.6,126.9c-9.5,19.3-17.8,39.1-25.4,59.2c-13.4,35.9-33.1,68.2-55.8,98.9c-3.4,4.6-7.5,6.2-13,5.3
		c-7.2-1.2-13.6-4.2-19.8-7.9c-18.7-11.2-35.1-25.4-50.9-40.2c-19.1-18-39.6-35-55.3-56.2c-22-29.7-45.7-58.3-63.2-91.1
		c-23-43.3-41-88.5-48.8-137.3c-4.2-26.1-4.6-51.7,8.7-75.9C60,97.9,73.8,89.8,90.4,85.9c8-1.9,15.9,0.8,23.3,4
		c13.1,5.8,25.3,13.5,36.1,23c24.6,21.2,45.2,45.6,58.5,75.7C213,198.9,218.1,209.2,223,219.6z"/>
	<path class="st0" d="M661.2,1294.1c-10-0.3-25.2-0.4-40.2-3c-8-1.4-14.9-5.6-21.1-10.7s-8.4-14.8-5.6-22.3c0.5-1.4,1-3.1,2.9-2.9
		s2.3,1.7,2.1,3.3c-2.1,15.6,12,22.3,23.5,25.5c8.9,2.5,18.2,1.9,27.2,2.8c10.2,1,20.5,2.5,30.8,2.6c3.8,0,7.6-0.1,11.2-1.5
		c6.5-2.5,8.5-7.9,9.2-14.1c0.1-1-0.4-2.7,1.4-2.5c1,0.1,1.3,1.2,1.6,2.2c2.1,7.2-0.9,13.5-7.8,16.8
		C686.8,1294.8,676.5,1294.2,661.2,1294.1z"/>
	<path class="st0" d="M704.1,1207.2c-2.2-5.8-4.2-11.7-6.2-17.4c-3.9-11-12.2-16.1-22.6-19c-21-6-39.2-0.1-55.6,13.2
		c-3.2,2.7-5.3,6.4-7.9,9.6c-1,1.2-2,3.5-3.8,2.4s-0.2-3,0.6-4.3c4.2-7.1,9.5-13.3,16.5-17.7c19.4-12,39.5-16.9,61.2-5.7
		C699.4,1174.9,707.8,1192.4,704.1,1207.2z"/>
	<path class="st0" d="M685.3,1449.4c-1.2,2.3-2.9,1.8-4.3,1.5c-11.9-2-23.7-4.3-35.7-6.1c-13.1-1.9-26.3-3.4-39.5-5.1
		c-1.9-0.2-4.4,0.2-4.6-2.6c-0.2-3.1,2.4-3,4.6-3.2c8.1-0.6,15.8,2,23.6,3.3C648.1,1440.5,666.6,1444.6,685.3,1449.4z"/>
	<path class="st0" d="M596.2,1424.1c-5.2,0.4-10.4-0.4-15.3-2.3c-1.7-0.7-3.7-1.8-3.1-3.9s2.8-2,4.6-1.8c8.1,1,15.8,3.8,24,4.2
		c0.9,0.1,2.1,0.3,2,1.7c-0.1,1.1-1.2,0.9-1.9,1.1C603.1,1424.1,599.6,1424.4,596.2,1424.1z"/>
	<path class="st0" d="M443.3,1055.2l0.6-0.7c0.5,0.5,0.3,0.8-0.1,1.2C443.6,1055.5,443.5,1055.4,443.3,1055.2z"/>
	<path class="st0" d="M727.7,1065.6c-0.5,0.5-1,0.9-1.6,0.3c-0.1-0.1,0.2-0.8,0.3-1.2L727.7,1065.6z"/>
	<path class="st0" d="M819.1,1457.5l-0.2,0.3l-0.5-0.3c0.1-0.1,0.2-0.3,0.4-0.3S819,1457.4,819.1,1457.5z"/>
</g>
</svg>
