<?xml version="1.0" encoding="utf-8"?>
<!-- Generator: Adobe Illustrator 22.1.0, SVG Export Plug-In . SVG Version: 6.00 Build 0)  -->
<svg version="1.1" id="Laag_1" xmlns="http://www.w3.org/2000/svg" xmlns:xlink="http://www.w3.org/1999/xlink" x="0px" y="0px"
	 viewBox="0 0 2135.7 3500.1" style="enable-background:new 0 0 2135.7 3500.1;" xml:space="preserve">
<style type="text/css">
	.st0{fill:#FFFFFF;}
	.st1{fill:#E54F50;}
	.st2{fill:#FFFFFF;stroke:#000000;stroke-miterlimit:10;}
</style>
<path class="st0" d="M2113.7,714.1c-15.9-16.3-33.5-29-52.6-40.5c-38.1-22.9-79.4-35.2-123.4-40c-41.2-4.5-82.3-1.7-123.5-0.1
	c-43.7,1.7-87,8-129.4,16.8c-58.1,12-115.8,27-171.3,49.2c-40.9,16.3-81.1,34-119.4,55.5c-31.1,17.5-61.8,35.4-94.2,53.9
	c1.3-2.8,1.7-4.3,2.6-5.3c35.2-37.4,71-74.3,103.8-114c68-82.3,138.4-162.5,189-257.8c26.5-50,44.7-104,54-159.9
	c8-47.1,0.7-95-18.4-139.8c-12-28.2-31.8-50.4-63.9-53.7c-49.5-5.2-95.7,9.8-139,32c-49.9,25.5-88.8,65.1-125.9,106.2
	c-45.7,50.9-86.4,106.1-121.4,164.9c-34.5,57.5-63.8,117-86.5,179.8c-19.2,53.2-33.1,108-47.4,163c-1.4-20.5-0.2-41-1.6-61.4
	c-3.8-58.1-6.2-116.3-12.7-174.4c-5.2-46.8-10.5-93.7-17.2-140.2c-7.1-49-19.6-97.5-38.7-143.6c-15.2-36.7-33.7-72.3-56.6-104.6
	c-29.4-41.5-69.2-72.1-116.4-91.7C774.2-3.7,744.9-4.3,719,17.1c-30.2,24.8-49.5,57.7-64.4,93c-13.8,32.8-20.5,67.4-23.3,103
	c-4.6,57,0.1,113.7,6.6,170c5,42.5,13.9,84.5,24.6,126.1c8.5,33.3,17.9,66.2,29.5,98.3c28.9,80.5,69.6,155.3,115.9,228
	c-7,0.3-9.8-4.7-13.1-7.7c-20.8-19.2-40.7-39.3-61.8-58.1C662,706.5,588.6,646.2,511,590.9c-58.6-41.8-121.7-72.7-191.1-92.5
	c-59.8-17.1-118.8-16.9-176.9,3.1c-43.2,14.9-69.7,39.8-66.2,93.8c0.9,13.1,3.3,25.6,6,38.5c8,39.1,24,76,47.1,108.5
	c39.7,56.3,91.7,100.7,145.2,143c47.4,37.4,98.5,69.3,151.5,98.2c67.7,36.9,139,64.3,212.9,85.1c25.3,7.1,51,12.7,79.1,19.7
	c-14.7,5.3-27.2,4.4-39.6,4.5c-44.3,0.3-88.5,1.2-132.5,6.6c-35.3,4.4-70.8,6.4-106.2,10.9c-50,6.4-100.1,12.1-149.3,23.6
	c-49.2,11.5-96.7,29.3-141.4,53C84.7,1221.4,33.2,1267.8,6.6,1339c-13.7,36.8-5.4,65.4,18.3,88.8c48.9,48.2,109.9,72.8,176.7,78
	c85.2,6.7,170.3-0.9,254.2-18.5c53-11,105.2-25.7,156.1-44c36.2-13.2,71.2-29.2,105.7-46.7c39.9-20.2,78-43.4,117.6-64.2
	c-10,10.8-20,21.8-30.1,32.5c-37.6,39.7-74.1,80.3-108.4,122.8c-45.3,56.2-91,112-129.9,173.1c-35.9,56.3-59.9,117.2-75.6,181.7
	c-7.4,30.4-7.8,61.2-3.7,92.5c3.9,29.5,9.6,57.8,24.3,83.8c14.1,25.1,34.2,39.6,64.2,41.2c58.8,3.2,111.4-16.4,158.6-47.5
	c59.9-39.4,105.5-94.8,149.9-150.7c25.9-32.7,48.5-67.5,70.3-102.8c25.1-40.9,47.1-83.5,66-127.6c16.9-39.3,30.6-79.8,43.5-120.7
	c0.3,6,0.1,12-0.6,18c-7.8,72.5-16.7,144.8-23.2,217.4c-7.4,82.1-13.6,164.4-19.7,246.6c-7.5,100.4-14.4,200.7-16.1,301.3
	c-1.2,68.5-0.4,137-2,205.4c-1.8,77.1,0.4,154.1,8.5,230.7c13.5,128.5,37.8,255.3,63.3,381.9c26.2,130.2,57.3,258.7,107.2,382.3
	c5.9,14.5,14.4-4.4,17.9,4.9c2.3-1.1,5-2.7,3.6-5.5c-7.3-15.5,1.3-29.6,4-44c15.3-82.1,43.1-159.9,82.5-233.6
	c56.4-105.5,113.8-210.5,163.2-319.6c29.8-65.9,65.2-129.2,90.2-197.4c23.5-64,24.9-127.9,0.3-191.7
	c-20.1-52.1-64.8-79.4-119.9-74.4c-41.6,3.8-76.6,23.2-109.1,47.6c-46.1,34.7-81.1,79.5-111,128.3
	c-61.8,100.7-107.5,207.8-127.9,328.4c-2.1-7.1-3.5-10.9-4.2-14.7c-28.2-153.8-42.2-308.8-40.4-465.3c1.5-129.8-1-259.7,10-389.3
	c5.3-62.6,7.6-125.5,13-188.1c9.1-105.7,19.6-211.2,29.6-316.8c1.6-17.3,3.8-34.5,5.6-51.7c6.7,24,4.5,48.3,7.4,72.3
	c5,40.8,9.2,81.7,13.2,122.7c3.8,38.9,8.5,77.7,16.7,115.8c12,55.8,30.1,109.5,56.2,160.8c32.1,63.1,76.1,113.6,140.7,143.4
	c36.1,16.7,71.4,17.8,101.9-12.9c49.6-50,74.4-112.3,79-180.3c6.3-92.8-2.3-185-24.8-276c-14.1-57.3-30.2-113.7-52.5-168.4
	c-19.7-48.2-43.9-93.9-70.8-138.4c-9-14.8-17.3-30.1-26-45.2c5.8,2.3,11.2,5.7,15.8,10c32.2,30.8,64.5,61.4,98.6,90.2
	c71.2,60.2,142.6,120.1,221.7,170c59.6,37.8,126.2,63.3,195.8,75c49.7,8.5,100.9,1.5,146.5-20.2c30.6-14.5,50.1-37.2,49.8-74
	c-0.2-26.3-3.8-51.7-11.9-76.6c-9.3-28.4-21.4-55.1-38.6-79.8c-18.4-26.5-40-49.9-62.9-72.5c-31.9-31.7-66.1-61-102.2-87.7
	c-52.1-38.2-107.3-72-165.1-101c-53.2-26.9-108.8-47.3-165.8-64c-32.2-9.4-64.9-17.2-97.4-25.8c23.9-3,47.6-1.7,71.1-3.2
	c55.1-3.5,110.2-6.3,165.2-12.5c46.3-5.2,92.7-10,138.6-17.1c58.2-9,115.4-24.1,168.8-50.4c27.4-13.5,54.5-27.7,79.3-45.7
	c38.2-27.7,68.5-64.9,87.8-107.9C2139.1,781.3,2142.8,743.8,2113.7,714.1z M1107,2978.5c20.4-126.1,64.9-243.2,132.4-351.5
	c24.3-39,52.1-75.3,86.9-105.7c25.2-22.1,53.2-39.6,85.8-48.5c46.9-12.8,85.2,6.8,102.6,52.2c21.7,56.6,16.1,112.2-4.9,167.7
	c-22.1,58.4-53.8,112.3-78.8,169.3c-51.7,117.8-114,230.4-172.1,345.1c-21.9,43.2-39.2,88-53.7,134c-6.8,21.5-14.3,42.8-22.9,68.2
	c-21.4-66-39.9-128.4-53.8-192.1c-10.5-48-20.6-96.1-29.2-144.4C1093.9,3041.1,1101.9,3009.8,1107,2978.5z M721.2,621.6
	c-14.5-37.3-26.9-75.5-37-114.2c-11.6-43.9-20.2-88.5-25.9-133.5c-5.6-44.4-7.6-89.2-6-133.9c1.2-32,4.1-63.8,13.7-94.6
	c11.6-37.4,30.3-70.9,57-99.2c25.5-27.1,52.5-27.4,87.7-7.9c59.2,32.8,96.4,83.3,124.7,143.1c22.2,46.9,39.5,95.4,49.5,146
	c7.8,39.7,11.4,80.2,16.2,120.4s9,80.7,12.7,121.1c2.4,25.5,5.4,51.1,4.8,76.6c-1.5,74,11.5,147.3,9.7,221.3
	c-0.1,5.5-0.3,11-0.5,16.6c-4.5,2.6-7.6-0.6-10.6-2.9c-18.6-14.3-38.8-16.2-60.4-8.2c-4.6,1.7-9.3,3.7-14.4,2
	C930.2,864,929.3,848.4,925,835c-19.3-60.8-41.2-120.8-59-182.1c-10.5-35.9-15.1-72.7-20.2-109.5c-4.7-34.4-7.2-68.9-11.5-103.3
	c-0.4-3.4-0.3-7-3.6-11.2c-4.7,7-4.3,14.1-2.7,20.4c7.2,28.5,6.8,57.8,10.7,86.6c8.4,62.9,20.7,124.7,42.3,184.7
	c17.4,48.2,30,98,47.3,146.3c1.9,5.2,3.1,10.6,3.5,16.1c-4.7,15.9-12.3,30.9-22.4,44.1c-36.6-30.6-60.3-71.4-85.8-110.5
	C783.6,754.8,748.1,690.2,721.2,621.6z M706,1060.8c-68.9-15.3-136.4-35.2-201-63.8c-42.5-18.8-83.2-40.9-123.1-65
	c-48.3-29.1-93.9-62.4-136.4-99.4c-51.7-45.2-100.9-93.1-127-159c-12-30.5-18.5-62.2-16.9-95.2c1.5-30.1,21.8-44.7,47-53.2
	c39.4-13.2,80.7-18.4,121.5-11.5c36,6,70.9,18.6,105.1,32.1c48.9,19.2,94.8,45.3,136.4,77.4c37.6,28.9,74.9,58.3,112.5,87.3
	c71.4,55,133.9,120.2,202.9,178.1c28.7,24.1,57,49,81.1,78.2c4.4,1.5,5.9,5.3,6.8,9.2c5.8,22.9,13.6,45.3,23.3,66.8
	c1.9,4.2,3.3,8.5,0.4,12.9c-53.7-14.5-103.5-38-152.4-64.2c-36.5-19.5-74.2-36.7-111.2-55.2c-43.1-21.5-83.9-46.3-121.5-76.5
	c-30.2-24.2-60.7-47.9-90.9-71.9c-3.5-2.7-6-6.7-9.3-9.5c-3-2.6-5.9-8.5-11-3.1c-3.9,4.1-4.2,8.9,0.1,13.2
	c6.3,6.3,12,13.6,19.2,18.7c52.1,36.3,98.5,80.3,153.5,112.7c28.5,16.8,58.2,31.3,87.7,46.2c44.5,22.4,88.6,45.7,133.1,68.1
	c34,17.1,70.5,28.1,107.4,39.6c-38.1,5.5-75.8,8.5-113.4,7.2C787.9,1079.5,747,1069.9,706,1060.8z M762.5,1345.1
	c-62.7,38.3-129.1,68.2-198.9,91c-46.4,15.1-93.5,28.7-141.5,35.7c-77.8,11.3-155.9,21.5-235.1,8.6c-52.5-8.5-99-27.5-137.9-63.7
	c-37.6-35-30.4-51.4-12.5-87c26.5-52.6,68.6-90,122.2-116.6c46.3-23,93.3-42.9,143.2-55.3c32.9-8.2,66.6-12.8,100.3-16.5
	s67.6-8.6,101.5-11.8c49.5-4.6,99-10,148.6-11.7c61.3-2.1,122.4-7.7,183.6-8.7c42.1-0.6,84.4,2.4,126.6-0.8c3-0.2,6-0.5,9-0.7
	c13.3,4.4,19.4,14.4,21.5,27.6c-23,16.4-48.5,28.2-74,39.9c-49.1,22.6-101,37.2-152.1,54.1c-41.3,13.7-82,28.9-124.1,39.8
	c-56.2,14.7-113.8,20.1-171.4,25.6c-15.4,1.5-30.5,5.7-46.2,3.8c-3.3-0.4-6,1.3-6.6,4.8c-0.6,3.7,0.3,6.1,4.5,8.1
	c7.9,3.7,16,2.7,23.7,1.7c59-7,118.2-12.9,176.5-24.3c39.8-7.8,77.9-22.3,116.5-34.6c27.8-8.8,55.6-17.7,83.4-26.3
	c54.4-16.8,107.2-37.4,159.9-68.5c-7.3,14.5-15.9,22.4-24,30.9c-8.7,9.1-16.8,18.6-25,28.1C886.5,1273.9,823.4,1307.9,762.5,1345.1
	L762.5,1345.1z M1060,1428.6c-10.9,52.4-25.7,104-44.2,154.3c-17.5,47.1-38.9,92.7-63.9,136.3c-23.8,41.7-48.5,82.7-77.8,120.6
	c-43.2,55.9-88.6,110.3-147.5,150.4c-45,30.7-94.9,49.3-151.1,45.7c-22-1.4-36.8-13-44.7-32c-22.2-53.1-27-107.6-11.8-163.9
	c23.8-87.7,63.9-166.5,120.4-237.8c40.2-50.8,80.2-101.8,121.7-151.6c27-32.3,56.8-62.3,85.1-93.6c25.8-28.5,51.7-57,76.6-86.3
	c17.6-20.7,39.9-36.3,57.8-56.5c13.9-15.7,28.4-31,42.6-46.4c17.4,3.4,26.2,15.9,32.6,30.9c-2.2,29.3-15.2,55.1-27,81.1
	c-37.6,82.9-78.6,164.2-123,243.7c-24.4,43.5-57.7,81.1-88.9,119.8c-12.3,15.2-25,30.1-36.6,46.1c9.4-1.5,9.8-1.2,18-11.8
	c27.1-35,54.3-69.9,81.5-104.8c38-48.4,62.4-104.3,91.1-157.9c14.7-27.5,28.1-55.7,43-83.1c22-40.4,36.6-83.7,51.8-126.9
	c2-2.5,4.1-4.7,7.7-2.7c2,27.1,4.6,54.1,6,81.2C1082.1,1332.9,1070.2,1380.7,1060,1428.6z M1082.2,939.7c-4.4-5.8-1.2-11.3,0.4-17.1
	c16.1-56,44-106.8,70.1-158.4c21.8-43.1,41.5-87.2,65.5-129.2c32.3-56.6,72.7-107.3,115.1-156.5c8.1-9.4,14.1-20.4,25.3-31.2
	c-11.2,0.3-14.8,6-18.7,10.8c-32.9,40-64.9,80.7-95.3,122.6c-23.9,33-43.3,68.8-60.9,105.7c-26.4,55.4-58,108.1-82.9,164.3
	c-11.1,25.4-20.6,51.4-28.3,78c-1.6,5.5-1.7,12.4-9.5,13.9c-10-6-1.1-15-3.6-22.2c-0.8-48-7.3-96.3,2.4-144
	c10.7-52.6,22.1-105,37.5-156.6c14.6-49.1,32.2-96.8,54.5-142.8c33.7-69.6,73.3-135.3,122-195.6c37.7-46.7,77-91.7,125.6-127.3
	c35.7-26.1,75-44,119.4-49.2c8-0.9,15.9-3.3,23.8-3.1c37,1,52.1,7.9,66.2,47.5c15.6,43.8,19.4,89.4,8.8,134.6
	c-12,51.1-29.2,100.4-54.3,147.1c-43.1,80.1-103.3,147.3-159.2,217.9c-56,70.8-121.8,132.9-178.6,203c-3,3.7-9.2,4.7-9.4,10.8
	c-11.1,4.3-22.1-2.9-33.9,0.7c-33.4,10-59.8,29.3-82.1,55.5C1096,926.2,1093.6,937.4,1082.2,939.7L1082.2,939.7z M1389.2,1458.7
	c18.7,37.6,33.8,77,46,117.2c12.8,42.3,24.2,85,32.1,128.7c12.8,70.4,20.7,141.2,16.2,212.6c-3.9,61.4-23.3,118.2-62.4,167
	c-27.9,34.9-60.1,37.6-102.9,12.2c-52.9-31.5-87.6-77.1-114-131.6c-22.2-45.8-39.6-92.9-50.7-142.4c-10.3-46-13-93.1-19.7-139.6
	c-7.8-54.2-10.7-108.9-16.1-163.3c-1.8-18.1-1-36.2-1.8-54.3c-2.6-52.2-6.1-104.4-8.1-156.6c-0.9-23.1,1.6-46.2,1.5-69.3
	c-0.1-20.6-1.7-41.2-2.7-61.8c4.9-15.2,15.7-24.7,30.1-30.6c30.6,51.1,53.7,105.3,71.2,162.3c14.9,48.6,32.4,96.5,48.2,144.8
	c21.3,65.3,30.8,132.8,35.4,201.1c1.2,18,7.6,35.4,5.9,53.8c-0.4,4.3-1.4,9.4,5.9,9.6c6.3,0.2,7.5-4.3,8.4-8.6
	c2.5-11.6-1.1-22.9-2.5-34.3c-4.9-39.7-9.5-79.5-15.1-119.1c-5.5-38.8-14.6-77.1-27-114.3c-21.6-65.3-41.5-131.1-64.2-196
	c-10-28.8-24.3-56.1-39.3-82.9c-1.2-2.1-3.3-3.9-1-7.5c53.2,43.8,102.2,90.4,138.8,150.1C1332.2,1356.1,1363,1406.1,1389.2,1458.7
	L1389.2,1458.7z M1447.9,1082.1c49.6,11.8,98.9,25.2,146.3,44.2c58.2,23.3,113.7,51.9,167.3,84.9c64.8,39.9,123.3,87.2,177.3,140.4
	c47.7,47,82.1,101.9,94.1,168.7c3,16.7,3.6,34.5-0.1,51.1c-4.7,21-21,33.4-40.5,40c-46.7,15.8-95,21.7-143.1,9.7
	c-64.1-16-125.8-38.8-181.5-75.6c-71.9-47.5-138.7-101.7-203.7-158c-68.3-59.2-136.1-118.9-202.3-180.4
	c-31.8-29.5-60.5-62.3-92.8-91.4c4-16.2,14.4-27,28.7-34.7c25,1.8,47.4,12.3,69.7,22.3c83,37.2,164.4,77.6,243.8,121.9
	c48.8,27.2,91.8,63.2,134.6,99.1c13.4,11.3,27.4,21.8,43.4,34c-0.3-10.1-5.8-14.4-11-18.3c-49.5-37-96.2-77.8-148.3-111.2
	c-24.5-15.7-50.3-29.3-76.7-41.7c-32.7-15.4-64-33.5-96-50.5c-47.6-25.2-96.8-46.7-148-63.4c-4.9-5.6-4.9-9.7,3.3-11.3
	c6-3.7,12.8-2.3,19.1-1.8c30.1,2.4,59.8-4.8,90.1-1.2C1364.4,1063.9,1406.3,1072.2,1447.9,1082.1L1447.9,1082.1z M2105.4,797.1
	c-19.3,40.2-45.4,76.6-83,101.5c-37.8,25.1-78.8,44.8-121.3,61.4c-47.2,18.4-96.4,29-146,34.9c-51.7,6.1-103.6,11.1-155.3,17.3
	c-87.5,10.5-175.7,5.2-263.1,16c-33.7,4.2-68.3,0.8-102.5,0.8c-1.4-2.2-1.5-4.9-0.2-7.2c15.5-24.1,20.8-51.9,29-78.6
	c10.2-10.1,24-12.8,36.7-16.5c63.7-18.7,125.5-43,189.5-60.7c35.6-9.8,71.8-14.1,108.2-19.3c30.4-4.4,61-5.9,91.4-9.4
	c6.2-0.7,12.6-1.2,19-4.6c-6.1-5.7-12.3-4.7-18-3.7c-48.9,9.1-98.7,10.9-147.7,19.7c-33.7,6-67.1,13.5-99.3,25
	c-55.4,19.8-112.4,34.6-167.9,54c-4.3,1.5-8.7,2.5-13.2,0.4c-7.8-15.6-14.8-31.5-17.8-48.8c30.6-26.1,64.8-46.9,98.7-68.1
	c39.5-24.6,80.1-47.5,122.2-67.2c31-14.5,63.1-26.6,95.5-37.7c47.1-16.1,95.3-28.2,144.1-37.5c61.8-11.8,124.2-16,187.1-15.2
	c36.7,0.5,72.9,3.9,107.6,16.3c38.2,13.7,72.8,33.2,100.2,64.4C2116.6,754.3,2115.2,776.7,2105.4,797.1L2105.4,797.1z"/>
<path class="st1" d="M1243.8,879.4c8.6,14.9,16,30.2,18.3,47.5c6,5.3,6,11.3,1.9,17.7c-2,30.9-14.8,58.1-29.9,84.4l-21.6,32.8
	c-3,2.2-5.9,4.4-4.4,8.8c-1.2,6.3-6.5,9-11.1,12.3c-10.3,10.1-20.3,20.5-28.1,32.8c-12.4,8.7-22.6,19.7-32.3,31.1
	c-11.7,8.6-20.5,20-30.1,30.6c-11.3,7.7-18.1,21.6-33,24.6l-4.5,2.2c-6.2,0.8-11.4-0.9-15.3-6.1c-8.2-12-18.6-22.4-30.6-30.6
	c-8.5-12.3-19.6-22.2-30.3-32.4c-5.9-10.1-13.1-19.4-21.5-27.6l-32.9-51.9c-11.6-29.2-23.2-58.3-30.5-89c0.3-13.3-2.1-26.7,1.6-39.9
	c3.4-15.4,11.6-28.5,19.7-41.7c3.3-5.8,7.6-10.5,14.5-12c30.2-15.1,58.5-13.9,84.1,10c10.4,11.5,19.8,23.7,26.1,38
	c3.4,7.7,4.3,3,5.5-1c5.1,6.5-0.8,15.6,5.1,21.9c6.9,11,11.2,1.8,16.1-2.1c3.3-4,7.1-7.7,10-12c18.2-26.8,42.4-46.4,71.1-60.8
	c18.2-9.1,36.9-12.3,56.5-4.6C1226.7,868.2,1235.3,873.8,1243.8,879.4z"/>
<path class="st0" d="M1053.8,1198.3c5.3,1.6,10.9,2.3,15.3,6.1c-14.8,51.4-36,100.2-61.1,147.5c-23.9,44.9-47.4,90-70,135.6
	c-26.3,53.1-63.5,98.6-99,145.2c-14.9,19.6-31,38.4-46.4,57.6c-3.6,4.5-7.7,7.7-14,6.8c-2.7-0.4-4.9-1.5-6.1-3.9
	c-1.4-2.6,0-4.7,1.9-6.6c27.3-28,51-58.9,74.8-89.7c25-32.2,49.8-64.9,68.3-101.7c19.3-38.4,40.1-76.1,58.8-114.8
	c16.1-33.4,34.6-65.6,48.7-99.9C1036.1,1253.7,1048.1,1227.1,1053.8,1198.3z"/>
<path class="st0" d="M1197,1083c2.3-5.3,4.3-11,11.1-12.3c43.4,10.7,83.9,28.9,123.6,48.9c44.4,22.3,88.3,45.7,132.8,68
	c48,24.1,92.6,53.4,134.8,86.5c28.4,22.3,56.9,44.4,85.2,66.7c3.5,2.7,6.6,5.7,8.8,10c2.6,5.2,3.9,9.6-1.4,13c-4.7,3-6.4-2-9.3-4.5
	c-28.3-23.4-56.6-46.9-85.5-69.6c-32.1-25.2-65-49.6-101-69.1c-28.2-15.3-57.2-28.9-85.8-43.4c-37.9-19.2-75.2-39.6-113.6-57.6
	C1264.6,1104.6,1231.6,1091.5,1197,1083z"/>
<path class="st0" d="M1080.6,940.1c-1.8,6-3.3,12.2-8.7,16.7c-5.9-3.1-5.8-9.3-7.4-14.6c10.3-33.5,21.1-66.7,35.6-98.7
	c21.2-46.9,46.7-91.5,69.8-137.4c16.8-33.4,32.2-67.5,52.8-98.9c31.2-47.5,66.3-92.1,102.3-136c7.7-9.4,13.2-20.6,23.9-27.6
	c4.7-3.1,8.4-5.8,12.5,0c3.6,5-0.1,8.4-3,11.6c-27.3,30.5-53,62.4-78.2,94.7c-34.8,44.5-64.4,92.7-88.4,143.8
	c-31.3,66.5-68.8,129.9-95.5,198.5C1090.2,907.8,1085.8,924.1,1080.6,940.1z"/>
<path class="st0" d="M943.8,873.2c-4.3,4.6-8.7,9.2-14.5,12c-22-64.5-40.6-130.2-62.8-194.7c-13.1-37.9-19.6-77.8-26.3-117.6
	c-6.8-40.5-5.8-81.9-16.2-121.8c-2-7.5-1.1-16.1,0.1-23.9c0.6-3.8,3.8-8.9,9.5-7.7c4.9,1,4.5,5.4,4.9,9.6
	c4.1,42.8,7.6,85.7,13.8,128.3c3.7,25.2,7.2,50.3,13.1,75c8.5,35.6,20.6,70.1,31.6,104.9c9.1,28.8,19.3,57.2,28.8,85.8
	C931.3,840.1,935.5,857.4,943.8,873.2z"/>
<path class="st0" d="M1264,944.7c-0.6-5.9-1.2-11.8-1.9-17.7c52.7-16.8,105.5-33.4,158.1-50.5c48-15.8,97.3-27.6,147.2-35.4
	c40.5-6.3,81.8-5.7,121.7-16.2c7-1.8,15.1-2.5,22.2,1.4c3.6,2,6.6,5,5.1,9.8c-1.3,4.1-4.7,3.9-8.5,4.2c-41.8,3.5-83.6,7.1-125.2,13
	c-24.7,3.5-49.3,6.8-73.6,12.4c-36.6,8.5-72.1,20.7-107.7,32.3c-31.9,10.4-63.8,21-95.6,31.8C1291.8,934.4,1277.1,937.4,1264,944.7z
	"/>
<path class="st2" d="M88,1318.3l-0.6,1.9c0.3-0.4,0.7-0.8,1-1.2C88.3,1318.7,88.1,1318.5,88,1318.3z"/>
</svg>
