<?xml version="1.0" encoding="utf-8"?>
<!-- Generator: Adobe Illustrator 22.1.0, SVG Export Plug-In . SVG Version: 6.00 Build 0)  -->
<svg version="1.1" id="Laag_1" xmlns="http://www.w3.org/2000/svg" xmlns:xlink="http://www.w3.org/1999/xlink" x="0px" y="0px"
	 viewBox="0 0 710 1160" style="enable-background:new 0 0 710 1160;" xml:space="preserve">
<style type="text/css">
	.st0{fill:#FFFFFF;}
</style>
<path class="st0" d="M697,232.2c-14.5-12.4-32.4-20.1-51.3-22c-27.1-3-54.1-0.5-80.9,4.3c-17.3,3.1-34.4,7.5-51,13.2
	c-15.6,5.4-30.8,11.9-45.5,19.5c-12.3,6.3-24.1,13.6-36.4,20.9c0.3-1,0.3-1.5,0.6-1.8c11.8-12.5,23.6-25,34.7-38
	c14-16.4,27.3-33.1,40.3-50.2c12-15.8,22.4-32.6,29.7-51.1c4.8-12.1,8.8-24.6,10.4-37.5c1.9-15-0.1-30.3-5.8-44.4
	c-4.1-10-10.6-17.7-21.9-18.9c-16.2-1.7-31.5,3.1-45.5,10.5c-23.4,12.3-40.1,32.2-56.4,52.4c-9.6,11.8-17.8,24.7-25.8,37.7
	c-15.2,24.9-27,51.7-35.1,79.7c-3.3,11-5.8,22.3-8.7,33.4c-0.9-6.9-0.6-13.7-0.9-20.5c-1.1-22.9-2.4-45.8-5.4-68.6
	c-2.1-15.4-3.4-30.9-6.6-46.2c-4.1-20.3-11.3-39.9-21.3-58c-7.1-12.6-15.6-23.8-27.4-32.4c-9.1-6.6-18.6-12-29.8-14.1h-4
	c-3.1,1.5-6.6,1.3-9.7,3.3c-11.9,7.8-18.7,19.4-24.4,31.9c-6.8,14.9-8.6,30.7-9.1,46.9c-0.3,10,0.9,20,1.3,29.9
	c0.5,13.1,2.6,26.1,5.4,38.8c3,14.5,6.8,28.8,11.5,42.8c5.6,16.3,12.3,32.1,20.2,47.4c6.3,12.2,13.5,23.8,20.2,35.8
	c-1.2-0.5-2.4-1.3-3.3-2.2c-11.3-10.4-22.4-21.1-34.1-31.1c-19.5-16.7-39.5-32.6-60.2-47.7c-21.2-15.6-45.3-26.7-70.9-32.7
	c-17.7-4.3-36.3-2.9-53.2,3.9c-12.5,4.9-20.4,12.3-19.8,28.5c0.2,4.8,0.9,9.6,1.9,14.2c2.7,12.9,8,25.2,15.6,36
	c13.1,18.7,30.3,33.3,48.1,47.4c15.8,12.3,32.5,23.1,50.2,32.5c22.5,12.1,46.3,21.6,71,28.3c8.3,2.3,16.6,4.2,26,6.6
	c-5.5,1.6-9.8,1.5-14.1,1.4c-12.7-0.3-25.3,0.2-37.9,1.6c-13.4,1.5-26.8,2.4-40.1,4.1c-16.4,2.2-32.8,4-49,7.6
	c-21,4.8-41,13.2-59.2,24.7c-17.6,11.1-30,26.4-36.8,46c-2.3,6.1-1.8,13,1.3,18.7c3.7,6.8,9.1,11.5,15.1,15.9
	c14.7,10.8,32.3,17.1,50.5,18.1c32.2,1.9,64.5-1.2,95.7-9.1c18-4.4,35.7-10.1,52.8-17.2c11.6-4.9,23-10.5,34-16.8
	c8.6-4.9,17.1-10,26.7-15.7c-1.4,1.9-2,2.9-2.8,3.8c-13.5,14.5-27.2,28.9-39.8,44.3c-16.2,19.9-32.5,39.8-46.6,61.4
	c-12,18.4-19.9,38.4-25.3,59.5c-4.5,18-2.7,35.8,3.5,53.2c2.9,7.9,7.5,14.8,15.5,18.2c7.1,3,14.9,2.5,22.1,1.3
	c21.8-3.7,40.6-13.7,56.5-29c14.8-14.3,28.3-29.9,40.2-46.7c13-18.2,24.4-37.6,33.9-57.9c7.1-15.5,13-31.4,17.9-47.7
	c-0.6,8.4-1.5,16.8-2.4,25.1c-2.2,22-4.4,44-6.6,66.1c-2.2,22.9-3.5,45.8-5.4,68.7c-2.7,32.5-4.7,65.1-5.3,97.7
	c-0.5,25-0.4,50-0.8,75c-0.5,23.7,0.5,47.3,2.9,70.9c4.4,42,12,83.6,20.8,124.9c3.3,15.6,6.8,31.2,9.9,46.9
	c5.7,28.3,16.6,54.9,26.1,82c0.3,1,0.9,1.7,1.6,1.3c2-1.3,7.2,0,4.5-5.4c-0.3-1-0.3-2,0-3c4.5-23.3,10.8-46,20.5-67.7
	c10.1-22.5,22.8-43.7,34.1-65.5c19.5-37.3,37.2-75.5,54.8-113.7c10-21.8,13.3-44.5,5.9-68c-8-25.5-29.5-36.2-54.5-27
	c-18.3,6.7-32.4,18.8-44.5,33.6c-20.3,25-34.2,53.4-45.5,83.3c-5.6,14.8-9.1,30.2-12.5,46.8c-0.6-2.2-1-3.3-1.2-4.5
	c-9.3-51.1-13.8-103-13.4-155c0.4-48.5,0.3-96.9,4.4-145.3c1.6-18.6,2.6-37.2,4.2-55.8c2.4-27.7,5.2-55.3,7.8-83
	c0.9-9.5,1.9-18.9,2.8-28.4c2.5,21,4,42.1,6.8,63c2,14.8,3.6,29.5,6.8,44.1c4.3,19.6,11.5,37.7,21,55.4c10,18.5,24.2,32.2,42.8,41.1
	c12,5.7,23.8,5.9,33.7-4c16.7-16.8,24.9-37.7,26.4-60.6c2-30.5-0.9-61.2-8.4-90.8c-4-16.1-8.4-32-14.2-47.6
	c-6.5-16.9-14.4-33.3-23.6-48.9c-3.8-6.6-7.7-13.1-12.2-20.8c2.6,1.9,4.1,2.8,5.4,4c11,10.4,21.8,20.9,33.4,30.5
	c27.3,22.6,53.8,46.1,85.5,62.8c16.5,8.9,34.3,15,52.8,18.1c16.3,2.7,33.1,0.4,48-6.7c10.2-4.8,16.8-12.2,16.6-24.3
	c0.1-7.6-1-15.2-3-22.5c-2.9-10.3-7.4-20-13.2-28.9c-6.1-9-13.4-16.8-21.1-24.4c-10.6-10.5-21.9-20.2-33.8-29
	c-17.3-12.6-35.5-23.8-54.7-33.4c-17.6-8.7-36-15.8-54.9-21.2c-10.8-3.2-21.8-5.8-32.6-8.6c8.1-1,16.1-0.6,24-1.1
	c18.2-1.1,36.5-2.1,54.7-4.1c15.3-1.7,30.7-3.3,45.9-5.7c18.9-3,37.5-7.8,55-16.4c9.2-4.5,18.5-9.1,26.7-15.2
	c12.2-8.9,22-20.7,28.3-34.4C712.1,253.6,709.3,242.7,697,232.2z M373.1,962c9.8-41.1,27.1-78.8,53.2-112.2
	c9.4-12,20.7-22.1,35-28.3c3.8-1.8,7.8-3,11.9-3.6c14.2-1.8,24.4,4.1,29.6,17.4c6.4,16.5,6.4,33.1,0.9,49.8
	c-2.9,8.5-6.2,16.8-10.1,24.9c-24.7,52-49.7,103.7-76.6,154.6c-6.8,12.8-11.5,26.5-16,40.2c-2.5,7.5-5,15-7.9,23.8
	c-10.4-31-16.9-61.6-24.2-91.9C362.6,1010.9,367.2,986.5,373.1,962z M256.1,239.3c-12.9-23.1-21.7-47.8-28.4-73.4
	c-8.4-32.3-11.9-64.9-9.5-98.1c1.3-19.2,9-37.3,22.1-51.5c8.5-9.5,17.7-9.9,29.7-3.2c19.5,10.8,31.7,27.4,41.1,47
	c7.6,15.5,13.1,31.9,16.5,48.8c2.7,13.8,3.9,27.9,5.5,41.8c1.3,11,1.9,22.2,3.6,33.1c1.4,9.3,1.5,18.6,1.9,27.9
	c2,42.1,3.7,84.1,4.2,126.2c0,1.2,0,2.3,0,4.5c-5.1-4.3-7.7-9.3-10.6-14.1c-11.4-18.7-19.4-38.9-25.6-59.9
	c-4.8-16.5-11-32.5-16-48.9c-6.9-22.3-8.8-45.4-10.6-68.4c-0.2-3.1-1.8-6.1-1-9.4c0.3-1-0.2-2.2-1.3-2.5c-0.1,0-0.3-0.1-0.4-0.1
	c-1.6-0.1-3,1.1-3.1,2.6c0,0,0,0,0,0c-0.4,2.6-0.7,5.5,0,7.9c2.8,9.3,2.2,19.1,3.6,28.6c3,20.9,6.6,41.5,14.3,61.3
	c3.8,9.9,6.4,20.3,9.5,30.5c5.8,18.6,12.1,37,22.3,53.8c0.1,0.2-0.1,0.6-0.2,1.4c-6.1-3.6-10.4-8.9-15.6-13.3
	C284.6,292.3,270.7,265.4,256.1,239.3L256.1,239.3z M196.6,340.9c-17.9-6-35.2-13.5-51.8-22.5c-20.4-10.9-39.6-23.9-57.3-38.7
	c-12.7-10.7-25-21.9-34.8-35.4C42.1,229.9,35.5,214,35.2,196c-0.2-12.3,4.4-18.3,16.2-22.1c12.8-4.1,26.1-5.7,39.3-3.6
	c12.1,2,23.8,6.3,35.3,10.8c16.5,6.5,32,15.3,46,26.1c12.3,9.3,24.2,19,36.3,28.5c26,20.3,49.1,43.9,74.1,65.3
	c12.7,10.9,24,23.5,36.1,35.1c6.4,6.2,13,12.1,20.3,18.8c-9,0.5-16.7-2.4-24.4-4.4c-11.1-2.8-21.9-6.8-32.2-11.8
	c-13-6.4-26.1-12.6-39-19.3c-11.9-6.1-24-11.8-35.5-18.6c-11.1-6.5-21.1-14.4-31.2-22.2c-8.7-6.7-16.9-14-25.3-21.1
	c-1.1-1-2.1-1.9-3.3-0.4c-1.1,1.1-1.1,2.9,0,4c2,2.2,4.1,4.3,6.4,6.2c13.6,10.5,26.9,21.2,40.9,31c10.7,7.5,22.4,13.5,34.2,19.3
	s23.3,11.8,34.8,17.9c15.9,8.6,32.7,15.3,50.1,20.1c-22.1,3.1-43.6,3.6-65-1.2C231.4,350.6,213.7,346.6,196.6,340.9z M255.6,444.7
	c-25.7,15.8-53.6,27.8-82.7,35.4c-10.2,2.6-20.4,5.4-30.8,7.2c-10.6,1.8-21.4,2.8-32.1,3.8c-19.6,1.9-39.2,2.1-58.4-3.1
	c-13.5-3.7-25.9-9.9-35.5-20.1c-10-10.6-8.9-14.9-2.2-28c8.8-17.3,22.7-29.3,40.2-38.1c15.3-7.6,30.9-14.2,47.4-18.3
	c10.8-2.5,21.7-4.3,32.7-5.4c11.5-1.3,23-2.8,34.6-4c17.9-1.9,35.7-3.6,53.7-4c18.5-0.4,36.9-1.9,55.3-2.8
	c5.6-0.3,11.3,0.5,16.9,0.7c15,0.3,29.9-1.2,44.9-1.9c1,0,2,0,4.3,0c-5.9,5.6-11.7,9.1-17.6,12.6c-19.4,11.5-40.4,19-62,25.5
	c-15.7,4.7-30.9,10.7-46.6,15.4c-9.6,2.9-19.6,4.1-29.5,5.7c-12.1,2-24.4,2.1-36.4,4.5c-2.6,0.4-5.3,0.5-7.9,0.4
	c-1.8,0-4.1-0.7-4,2.2c0.1,2.4,2.3,2.5,4,2.6c5.2,0.5,10.2-0.9,15.3-1.4c14.2-1.2,28.2-3.4,42.3-5.7c11-1.8,21.8-4.7,32.4-8.4
	c10.6-3.8,21.5-7,32.2-10.4c18.9-6,37.7-11.9,55-21.9c1.5-0.9,3.2-1.5,5.8-2.6c-4.9,7.5-11,12.7-16.1,18.8
	C295.9,421.6,275.2,432.6,255.6,444.7L255.6,444.7z M352.6,472.8c-3.6,17.5-8.6,34.7-14.8,51.5c-5.8,15.6-12.9,30.7-21.2,45.1
	c-7.9,13.8-16,27.4-25.8,39.9c-14.3,18.3-29.2,36.2-48.5,49.4c-15.2,10.4-32,16.7-50.9,15.3c-5.7-0.3-10.8-3.7-13.3-9
	c-6.4-12.5-9-26.5-7.4-40.5c2.1-20.1,9.3-38.9,18.4-56.8c12.7-25.2,31.5-46.1,48.7-68.1c19.1-24.4,41.4-46,61.4-69.6
	c14-16.7,30.9-30.5,45.2-47c3.5-4.1,7.2-8,11.5-12.7c0.1,9.2-2.6,16.9-4.6,24.7c-2.8,10.9-6.6,21.6-11.5,31.7
	c-6.4,13.1-12.8,26.2-19.4,39.2c-5.1,10.2-10.4,20.4-15.7,30.5c-7.1,13.5-16.6,25.4-25.9,37.3c-5.6,7.2-11.4,14.3-17.1,21.4
	c-0.7,0.9-1.5,1.8-2.4,2.5c-1.2,0.9-3.1,1.5-1.8,3.3s3.3,1.6,4.8,0.2c2.2-2,4.2-4.1,6-6.4c10.1-13.2,20.2-26.5,30.2-39.8
	c7.9-10.5,13.6-22.3,19.4-33.9c8.5-16.9,17.4-33.7,25.8-50.7c5.6-11.3,9.2-23.3,13-36c0.8,10.4,1.6,20.1,2.1,29.9
	C359.9,440.9,356,456.8,352.6,472.8L352.6,472.8z M352.3,353.7c0.1-1.4,1.3-2.4,2.6-2.3c0,0,0.1,0,0.1,0c1.8,0,2.6,1.2,2.7,2.7
	c-0.3,2-1.4,2.9-3.1,2.8c-1.4-0.1-2.5-1.3-2.5-2.7C352.2,354,352.2,353.9,352.3,353.7L352.3,353.7z M354.9,337.5
	c0-13.9,4.5-25.9,8.3-37.9c4.5-14.2,11.7-27.3,18.3-40.7c5.9-12,12.6-23.6,18.2-35.7c8-17.1,18.9-32.2,30.4-46.9
	c7-8.9,14-17.7,21.7-25.9c0.8-0.9,1.5-2.2,0.3-3.6s-2.2-0.8-3.5-0.1c-2.4,1.3-3.9,3.4-5.5,5.4c-13.5,18-28.5,35-40.1,54.5
	c-5.5,9.3-9.9,19.1-14.9,28.6c-7.9,15.1-15.7,30.2-23,45.5c-4.4,9.2-7.7,18.8-10.1,28.6c-0.3,1.4-0.9,2.8-1.6,4.1
	c-2.3-12-1.3-23.9-2.3-35.6c-0.6-7.5,1-15.2,2.5-22.6c1.9-9.9,3.8-19.7,6.3-29.5c6.3-24.5,14-48.4,25.4-71.2
	c8.3-16.9,18-33.1,28.9-48.4c15-20.8,31.5-40.3,52.2-55.6c13.2-10,29.2-15.7,45.8-16.4c12.6-0.5,18.3,2.5,22.9,16.3
	c4.9,14.4,6.2,29.3,2.7,44.1c-3.9,16.9-9.9,33.3-18.1,48.7c-14.3,26.5-34.1,48.9-52.8,72.1c-20.2,25.2-43,48.2-64.3,72.3
	c-12,13.6-25.9,25.5-37.9,39.2C361.8,330.2,358.6,333.5,354.9,337.5L354.9,337.5z M461.3,482.9c4,8.1,7.5,16.3,10.5,24.8
	c6.2,16.8,11.1,34.1,14.6,51.6c4.8,24.8,7.9,49.9,6.3,75.2c-1.3,20.5-7.7,39.5-20.8,55.8c-9.2,11.5-19.9,12.4-33.8,4.1
	c-17.4-10.4-29.1-25.4-37.8-43.5c-7.5-15.2-13.2-31.1-17-47.6c-3.4-15.1-4.3-30.5-6.4-45.7c-2.6-18.1-3.7-36.3-5.3-54.5
	c-0.5-5.5-0.5-11-0.6-16.5c-0.3-17.8-1.6-35.5-2.9-53.3c-0.4-6,0.7-12,0.8-18c0.1-15-1.5-29.9-1.8-44.9c0-1.4,0-2.8,0-5.3
	c7.1,7.8,11.6,15.8,16,23.9c9.8,17.9,16,37.2,22.2,56.5c4.9,15.4,10.6,30.5,15.1,46.1c2.7,9.3,4.2,18.9,5.8,28.5
	c2.1,12.6,2.1,25.5,4.6,38c0.5,2.6,0.2,5.3,0.3,8c0,1.3-0.2,2.8,1.8,2.9c2.3,0.2,2.8-1.5,3.1-3.1c0.8-4.9-0.7-9.6-1.2-14.3
	c-1.7-14.5-3.5-28.9-5.7-43.3c-1.8-11-4.5-21.9-8.2-32.4c-3.5-10.4-6.8-20.9-10.1-31.3c-6.5-20.4-13.1-40.8-23.9-59.5
	c-0.3-0.5-0.5-1.1-1.1-2.5c4.7,2.8,7.9,6,11.2,9.1s6.7,6.2,10.2,9.2c12.1,10.1,19.8,23.5,28.3,36.4
	C445,451.9,453.7,467.1,461.3,482.9z M483.5,359.1c19,4.9,37.8,10.5,55.9,18.3c16.8,7.3,33,15.9,48.5,25.7
	c14,8.8,27.2,18.7,39.5,29.7c10.8,9.7,21.4,19.5,30,31.2c11,15.1,17.6,31.8,17.6,50.8c0,8.7-4,14.9-11.6,17.8
	c-17.5,6.6-35.5,8.4-53.9,3c-11.2-3.3-22.2-6.8-32.9-11.4c-14.8-6.5-28.3-15.1-41.1-24.9c-12.1-9.3-24-18.6-35.9-28.1
	c-15.2-12.2-29.6-25.4-43.9-38.7c-10.7-10-21.8-19.6-32.9-29.2c-7.2-6.2-13-13.8-20-20.2c-10.1-9.3-20-18.9-30.4-28.7
	c6.4-1.1,12.4,0.8,18.3,2.3c12.7,3.2,25.1,7.4,37,12.8c9.2,4.2,18.2,9,27.3,13.6c11,5.5,21.8,11.2,32.8,16.6
	c17.7,8.7,33.5,20.1,48.7,32.6c7.7,6.4,15.8,12.3,23.1,19.2c0.6,0.7,1.5,0.8,2.2,0.3c1.2-0.8,1.5-2.3,0.8-3.5
	c-1.1-2.7-3.4-4.5-5.6-6.1c-13.3-9.2-25.3-20.1-38.6-29.4c-10.2-7.3-21-13.7-32.3-19.2c-12.6-5.9-24.7-12.7-37.1-19
	c-16.3-8.3-32.7-16.4-50.7-20.5c-1-0.4-2-0.8-3-1.4c12.1-2.3,23.9-1.2,35.5-2.3c7.5-0.7,15.2,1,22.7,2.4
	C463.6,354.6,473.7,356.6,483.5,359.1z M698.6,264.2c-6.5,13.3-15,25.3-27.5,33.6c-12.5,8.1-25.8,14.9-39.7,20.2
	c-15.6,5.9-31.8,9.8-48.4,11.6c-17.1,2-34.3,3.8-51.4,5.8c-20.4,2.3-40.8,2.2-61.2,3.4c-18.2,1.1-36.5,3.1-54.8,2.3
	c-16-0.6-32,0.4-49.2,1.2c6.7-7.1,14.3-10.8,21.5-14.9c16.7-9.4,34.5-16,52.9-21.6c16.5-5,32.8-11.1,49.4-16.2
	c19.4-5.9,39.4-7.8,59.5-9.8c5.9-0.6,11.8-1.1,17.8-1.5c1.3-0.1,2.3-0.4,2.6-1.8c0.2-1.4-0.7-2.7-2.1-3.1c-2.5-0.9-5.3-1-7.9-0.2
	c-9.5,2.7-19.4,2.1-29,3.6c-20.7,3-41.2,6.6-60.9,14.1c-9.6,3.7-19.7,6-29.5,9.2c-19,6-37.8,12.5-55,22.8c-0.6,0.3-1.2,0.5-3.3,1.4
	c3-3.5,5.1-6,7.2-8.4c2.2-2.6,4.6-5.1,6.7-7.8c10-12.9,23-22.5,36.5-31.1c14.8-9.4,29.8-18.4,45.5-26.3
	c18.5-9.3,37.8-16.7,57.8-22.3c33.9-9.6,68.6-14,103.8-11.3c22.4,1.7,42.6,9.5,57.6,27.4C702.7,251,701.6,258.1,698.6,264.2z"/>
</svg>
